<?xml version="1.0" encoding="UTF-8" standalone="no"?><!DOCTYPE svg PUBLIC "-//W3C//DTD SVG 1.1//EN" "http://www.w3.org/Graphics/SVG/1.1/DTD/svg11.dtd"><svg width="100%" height="100%" viewBox="0 0 1920 263" version="1.1" xmlns="http://www.w3.org/2000/svg" xmlns:xlink="http://www.w3.org/1999/xlink" xml:space="preserve" xmlns:serif="http://www.serif.com/" style="fill-rule:evenodd;clip-rule:evenodd;stroke-linejoin:round;stroke-miterlimit:2;"><rect id="Aktionariat-Black" serif:id="Aktionariat Black" x="0" y="0" width="1920" height="262.997" style="fill:none;"/><clipPath id="_clip1"><rect x="0" y="0" width="1920" height="262.997"/></clipPath><g clip-path="url(#_clip1)"><g><path d="M257.544,259.293l-44.821,-259.296l-55.564,0l-156.689,259.296l51.119,-0l36.672,-61.12l110.385,0l10.372,61.12l48.526,-0Zm-83.716,-204.473l17.04,98.903l-76.307,-0l59.267,-98.903Z" style="fill-rule:nonzero;"/><path d="M326.442,259.293l12.224,-58.156l28.152,-22.226l51.859,80.382l55.564,-0l-71.492,-108.904l95.94,-76.307l-62.972,-0l-84.456,67.417l30.374,-141.502l-48.155,0l-55.193,259.296l48.155,-0Z" style="fill-rule:nonzero;"/><path d="M610.186,259.293l8.52,-40.747l-41.117,0c-9.261,0 -10.743,-7.038 -8.89,-15.928l19.262,-89.642l44.08,0l7.779,-38.894l-43.71,-0l12.965,-60.009l-47.044,0l-12.965,60.009l-40.005,-0l-8.15,38.894l39.635,0l-21.114,100.014c-5.556,25.93 8.15,46.303 35.561,46.303l55.193,-0Z" style="fill-rule:nonzero;"/><path d="M732.425,50.004l10.743,-50.007l-51.86,0l-10.742,50.007l51.859,0Zm-46.302,209.289l39.264,-185.211l-48.155,-0l-39.264,185.211l48.155,-0Z" style="fill-rule:nonzero;"/><path d="M818.734,262.997c52.229,0 101.125,-35.56 101.125,-109.274c0,-46.674 -30.004,-83.346 -87.049,-83.346c-52.23,0 -101.125,35.561 -101.125,109.275c-0,46.673 30.004,83.345 87.049,83.345Zm2.222,-38.894c-26.3,-0 -41.117,-18.892 -41.117,-48.155c0,-41.858 22.967,-66.676 47.785,-66.676l2.963,-0c26.3,-0 41.117,18.891 41.117,48.155c0,41.487 -22.966,66.676 -47.784,66.676l-2.964,-0Z" style="fill-rule:nonzero;"/><path d="M974.311,259.293l21.855,-102.607c6.297,-29.634 27.782,-47.414 47.414,-47.414l2.964,-0c19.632,-0 25.559,11.853 21.114,33.338l-24.819,116.683l48.155,-0l25.189,-118.535c10.002,-46.303 -15.187,-70.381 -52.97,-70.381c-19.262,0 -36.672,5.927 -54.082,23.707l4.445,-20.002l-48.155,-0l-39.265,185.211l48.155,-0Z" style="fill-rule:nonzero;"/><path d="M1211.01,262.997c20.744,0 41.117,-11.483 48.155,-23.707l-4.074,20.003l48.154,-0l39.636,-185.211l-48.155,-0l-5.927,27.781c-9.631,-19.262 -30.745,-31.486 -57.045,-31.486c-43.71,0 -93.717,44.081 -93.717,107.793c0,51.86 31.486,84.827 72.973,84.827Zm11.854,-38.894c-22.226,-0 -36.672,-17.41 -36.672,-45.933c-0,-39.264 25.189,-68.898 50.748,-68.898l2.963,-0c21.485,-0 35.19,15.928 35.19,42.598c0,36.302 -18.891,71.862 -49.266,72.233l-2.963,-0Z" style="fill-rule:nonzero;"/><path d="M1387.7,259.293l18.521,-89.272c6.297,-29.634 25.189,-53.341 59.638,-53.341l16.299,0l9.26,-44.45l-11.853,-0c-24.448,-0 -46.303,10.742 -60.75,37.412l7.409,-35.56l-47.414,-0l-38.524,185.211l47.414,-0Z" style="fill-rule:nonzero;"/><path d="M1569.21,50.004l10.742,-50.007l-51.859,0l-10.742,50.007l51.859,0Zm-46.303,209.289l39.265,-185.211l-48.155,-0l-39.265,185.211l48.155,-0Z" style="fill-rule:nonzero;"/><path d="M1641.07,262.997c20.743,0 41.117,-11.483 48.155,-23.707l-4.075,20.003l48.155,-0l39.635,-185.211l-48.155,-0l-5.926,27.781c-9.631,-19.262 -30.746,-31.486 -57.046,-31.486c-43.709,0 -93.716,44.081 -93.716,107.793c-0,51.86 31.486,84.827 72.973,84.827Zm11.853,-38.894c-22.225,-0 -36.671,-17.41 -36.671,-45.933c-0,-39.264 25.188,-68.898 50.747,-68.898l2.964,-0c21.484,-0 35.19,15.928 35.19,42.598c-0,36.302 -18.892,71.862 -49.266,72.233l-2.964,-0Z" style="fill-rule:nonzero;"/><path d="M1890.37,259.293l8.52,-40.747l-41.117,0c-9.261,0 -10.742,-7.038 -8.89,-15.928l19.262,-89.642l44.08,0l7.779,-38.894l-43.71,-0l12.965,-60.009l-47.044,0l-12.965,60.009l-40.005,-0l-8.149,38.894l39.635,0l-21.114,100.014c-5.557,25.93 8.149,46.303 35.56,46.303l55.193,-0Z" style="fill-rule:nonzero;"/></g></g></svg>