<?xml version="1.0" encoding="UTF-8" standalone="no"?><!DOCTYPE svg PUBLIC "-//W3C//DTD SVG 1.1//EN" "http://www.w3.org/Graphics/SVG/1.1/DTD/svg11.dtd"><svg width="470px" height="470px" version="1.1" xmlns="http://www.w3.org/2000/svg" xmlns:xlink="http://www.w3.org/1999/xlink" xml:space="preserve" xmlns:serif="http://www.serif.com/" style="fill-rule:evenodd;clip-rule:evenodd;stroke-linejoin:round;stroke-miterlimit:2;"><g transform="matrix(1,0,0,1,-1217.63,-77.8112)"><g transform="matrix(4.16667,0,0,4.16667,1127.44,0)"><g transform="matrix(1,0,0,1,107.632,18.6747)"><path d="M0,112.664L-59.307,112.664C-74.041,112.664 -85.986,100.72 -85.986,85.985L-85.986,26.678C-85.986,11.944 -74.041,0 -59.307,0L0,0C14.734,0 26.679,11.944 26.679,26.678L26.679,85.985C26.679,100.72 14.734,112.664 0,112.664" style="fill:rgb(255,100,40);fill-rule:nonzero;"/></g></g><g transform="matrix(4.16667,0,0,4.16667,1127.44,0)"><g transform="matrix(-0.555712,0.831375,0.831375,0.555712,97.9271,103.812)"><path d="M-47.047,-40.626L32.06,-40.626L21.71,-25.142L-57.397,-25.142L-47.047,-40.626Z" style="fill:white;fill-rule:nonzero;"/></g></g><g transform="matrix(4.16667,0,0,4.16667,1127.44,0)"><g transform="matrix(1,0,0,1,58.3659,42.8503)"><path d="M0,24.5C6.947,23.772 11.989,17.55 11.261,10.602C11.126,9.317 10.802,8.098 10.321,6.968L22.851,-0.728L-1.318,-0.728C-1.754,-0.727 -2.194,-0.705 -2.637,-0.659C-9.584,0.069 -14.626,6.291 -13.898,13.239C-13.17,20.186 -6.947,25.228 0,24.5" style="fill:white;fill-rule:nonzero;"/></g></g><g transform="matrix(4.16667,0,0,4.16667,1127.44,0)"><g transform="matrix(1,0,0,1,111.477,95.9004)"><path d="M0,-1.978C-0.728,-8.925 -6.951,-13.967 -13.898,-13.239C-20.845,-12.511 -25.887,-6.289 -25.159,0.659C-25.024,1.944 -24.7,3.162 -24.219,4.293L-36.749,11.989L-12.58,11.988C-12.144,11.988 -11.704,11.966 -11.261,11.92C-4.314,11.192 0.728,4.969 0,-1.978" style="fill:white;fill-rule:nonzero;"/></g></g></g></svg>